<svg id="kor_map" data-name="kor map" xmlns="http://www.w3.org/2000/svg" xmlns:xlink="http://www.w3.org/1999/xlink" viewBox="0 0 336.98 429.23">
  <defs>
    <style>
      .cls-1, .cls-3 {
        fill: none;
      }

      .cls-1 {
        clip-rule: evenodd;
      }

      .cls-2 {
        fill: #43C4A5;
        fill-rule: evenodd;
      }

      .cls-3 {
        stroke: #000;
        stroke-linejoin: round;
        stroke-width: 0.88px;
      }

      .cls-4 {
        clip-path: url(#clip-path);
      }

      .cls-5 {
        clip-path: url(#clip-path-2);
      }
    </style>
    <clipPath id="clip-path" transform="translate(-702.55 -441.84)">
      <polygon class="cls-1" points="713.92 566.84 774.74 566.84 774.74 498.94 713.92 498.94 713.92 566.84 713.92 566.84"/>
    </clipPath>
    <clipPath id="clip-path-2" transform="translate(-702.55 -441.84)">
      <polygon class="cls-1" points="1007.8 580.92 1039.53 580.92 1039.53 561.52 1007.8 561.52 1007.8 580.92 1007.8 580.92"/>
    </clipPath>
  </defs>
  <title>ko_map_b2</title>
  <g id="jeju">
    <polygon class="cls-2" points="36.63 419.39 37.1 412.33 41.78 408.57 47.41 407.16 53.03 400.57 60.53 398.69 68.03 397.75 69.9 395.87 80.22 395.87 83.5 393.52 88.18 394.46 92.87 398.69 95.68 404.34 92.87 411.39 83.03 419.86 73.19 424.09 64.75 426.44 57.25 424.09 51.16 427.38 45.53 428.79 39.44 423.15 36.63 419.39 36.63 419.39 36.63 419.39"/>
    <polygon class="cls-3" points="36.63 419.39 37.1 412.33 41.78 408.57 47.41 407.16 53.03 400.57 60.53 398.69 68.03 397.75 69.9 395.87 80.22 395.87 83.5 393.52 88.18 394.46 92.87 398.69 95.68 404.34 92.87 411.39 83.03 419.86 73.19 424.09 64.75 426.44 57.25 424.09 51.16 427.38 45.53 428.79 39.44 423.15 36.63 419.39 36.63 419.39 36.63 419.39"/>
  </g>
  <g id="jennam">
    <polyline class="cls-2" points="145.87 329.87 144 315.37 141.19 313.97 141.66 304.62 136.05 298.07 129.97 291.52 129.97 284.04 127.17 281.23 126.7 278.42 123.43 275.62 117.81 275.15 114.07 278.89 108.46 279.36 103.79 277.02 97.71 279.36 89.76 279.36 88.82 275.15 85.55 271.41 80.87 269.07 74.79 264.39 71.05 265.33 64.5 273.28 57.02 277.02 51.88 277.49 49.54 272.81 44.4 268.13 41.12 275.15 38.79 280.76 34.11 285.44 36.45 291.52 28.03 291.99 23.35 289.65 19.61 292.45 13.53 291.99 11.66 296.67 16.34 301.81 20.55 305.08 19.61 309.29 13.53 310.7 10.73 314.91 12.13 319.12 4.65 323.79 5.58 329.4 9.33 335.49 6.05 340.63 10.26 343.44 15.87 344.84 8.86 355.13 5.12 364.02 0.44 371.5 5.58 377.11 10.73 379.92 17.74 376.64 22.42 373.37 28.5 373.37 28.5 369.63 25.69 365.89 28.5 363.08 35.51 363.08 42.99 358.87 49.54 365.42 52.81 367.76 63.1 367.29 67.78 370.56 72.45 367.76 85.08 367.29 90.69 369.63 94.9 366.36 95.37 361.68 100.98 360.74 108.46 355.6 113.61 351.86 117.35 354.66 118.28 357.94 122.96 357 125.3 352.79 122.49 347.18 122.96 339.69 128.57 338.76 133.71 341.1 140.26 340.63 141.66 337.82 142.13 331.74 145.87 329.87"/>
    <polyline class="cls-3" points="145.87 329.87 144 315.37 141.19 313.97 141.66 304.62 136.05 298.07 129.97 291.52 129.97 284.04 127.17 281.23 126.7 278.42 123.43 275.62 117.81 275.15 114.07 278.89 108.46 279.36 103.79 277.02 97.71 279.36 89.76 279.36 88.82 275.15 85.55 271.41 80.87 269.07 74.79 264.39 71.05 265.33 64.5 273.28 57.02 277.02 51.88 277.49 49.54 272.81 44.4 268.13 41.12 275.15 38.79 280.76 34.11 285.44 36.45 291.52 28.03 291.99 23.35 289.65 19.61 292.45 13.53 291.99 11.66 296.67 16.34 301.81 20.55 305.08 19.61 309.29 13.53 310.7 10.73 314.91 12.13 319.12 4.65 323.79 5.58 329.4 9.33 335.49 6.05 340.63 10.26 343.44 15.87 344.84 8.86 355.13 5.12 364.02 0.44 371.5 5.58 377.11 10.73 379.92 17.74 376.64 22.42 373.37 28.5 373.37 28.5 369.63 25.69 365.89 28.5 363.08 35.51 363.08 42.99 358.87 49.54 365.42 52.81 367.76 63.1 367.29 67.78 370.56 72.45 367.76 85.08 367.29 90.69 369.63 94.9 366.36 95.37 361.68 100.98 360.74 108.46 355.6 113.61 351.86 117.35 354.66 118.28 357.94 122.96 357 125.3 352.79 122.49 347.18 122.96 339.69 128.57 338.76 133.71 341.1 140.26 340.63 141.66 337.82 142.13 331.74 145.87 329.87"/>
  </g>
  <g id="gungnam">
    <polyline class="cls-2" points="125.86 278.88 131.03 272.32 131.5 263.89 127.27 259.21 127.74 251.72 130.09 248.44 131.97 238.14 139.01 234.86 143.24 230.18 146.52 229.24 152.63 231.12 154.98 233.46 162.02 233.46 166.25 236.74 169.53 242.35 169.53 248.91 173.76 251.25 182.21 250.78 185.97 251.25 188.79 249.38 193.95 249.38 198.65 254.53 207.57 255.93 212.74 257.34 221.66 248.44 228.23 248.91 229.64 253.59 225.41 257.34 226.82 261.55 231.52 262.96 235.75 267.17 240.44 267.64 239.97 271.85 234.34 274.66 223.07 283.09 215.55 288.71 214.15 294.33 211.33 296.2 203.34 293.86 198.65 294.8 191.13 299.95 189.26 305.1 192.54 309.78 197.71 310.25 201 304.63 203.34 301.82 208.98 301.82 211.33 306.5 207.57 309.31 208.51 313.53 210.86 316.81 209.45 322.43 203.81 329.45 200.53 333.66 193.48 333.66 188.32 330.86 182.68 325.7 178.46 320.55 172.82 322.89 162.96 322.89 161.08 324.77 160.61 334.13 156.85 335.07 150.75 330.86 145.11 330.39 143.71 322.43 143.24 315.87 140.42 314.47 140.89 305.1 138.07 301.35 134.31 297.14 129.15 291.99 129.15 284.5 126.33 281.69 125.86 278.88"/>
    <polyline class="cls-3" points="125.86 278.88 131.03 272.32 131.5 263.89 127.27 259.21 127.74 251.72 130.09 248.44 131.97 238.14 139.01 234.86 143.24 230.18 146.52 229.24 152.63 231.12 154.98 233.46 162.02 233.46 166.25 236.74 169.53 242.35 169.53 248.91 173.76 251.25 182.21 250.78 185.97 251.25 188.79 249.38 193.95 249.38 198.65 254.53 207.57 255.93 212.74 257.34 221.66 248.44 228.23 248.91 229.64 253.59 225.41 257.34 226.82 261.55 231.52 262.96 235.75 267.17 240.44 267.64 239.97 271.85 234.34 274.66 223.07 283.09 215.55 288.71 214.15 294.33 211.33 296.2 203.34 293.86 198.65 294.8 191.13 299.95 189.26 305.1 192.54 309.78 197.71 310.25 201 304.63 203.34 301.82 208.98 301.82 211.33 306.5 207.57 309.31 208.51 313.53 210.86 316.81 209.45 322.43 203.81 329.45 200.53 333.66 193.48 333.66 188.32 330.86 182.68 325.7 178.46 320.55 172.82 322.89 162.96 322.89 161.08 324.77 160.61 334.13 156.85 335.07 150.75 330.86 145.11 330.39 143.71 322.43 143.24 315.87 140.42 314.47 140.89 305.1 138.07 301.35 134.31 297.14 129.15 291.99 129.15 284.5 126.33 281.69 125.86 278.88"/>
  </g>
  <g id="bu">
    <polyline class="cls-2" points="240.73 272.17 235.1 274.95 216.34 288.82 214.93 294.37 212.12 296.22 204.14 293.91 199.45 294.83 191.94 299.92 190.07 305.01 193.35 309.63 198.51 310.09 201.8 304.54 204.61 302.23 209.77 301.77 212.12 306.39 218.22 305.47 221.03 300.38 225.72 302.23 230.41 300.38 237.45 292.98 243.08 292.06 244.96 290.21 245.43 284.66 247.3 282.35 248.24 277.72 244.02 275.41 240.73 272.17"/>
    <polyline class="cls-3" points="240.73 272.17 235.1 274.95 216.34 288.82 214.93 294.37 212.12 296.22 204.14 293.91 199.45 294.83 191.94 299.92 190.07 305.01 193.35 309.63 198.51 310.09 201.8 304.54 204.61 302.23 209.77 301.77 212.12 306.39 218.22 305.47 221.03 300.38 225.72 302.23 230.41 300.38 237.45 292.98 243.08 292.06 244.96 290.21 245.43 284.66 247.3 282.35 248.24 277.72 244.02 275.41 240.73 272.17"/>
  </g>
  <g id="uls">
    <polyline class="cls-2" points="228.35 249.12 229.79 253.82 225.97 257.57 226.44 262.27 231.7 263.21 235.99 267.43 240.77 267.9 240.29 272.13 243.63 275.42 248.41 278.23 254.13 274.48 254.13 266.5 260.34 263.68 259.86 249.59 255.09 245.83 249.84 248.65 245.06 245.36 240.29 242.08 233.13 244.89 228.35 249.12"/>
    <polyline class="cls-3" points="228.35 249.12 229.79 253.82 225.97 257.57 226.44 262.27 231.7 263.21 235.99 267.43 240.77 267.9 240.29 272.13 243.63 275.42 248.41 278.23 254.13 274.48 254.13 266.5 260.34 263.68 259.86 249.59 255.09 245.83 249.84 248.65 245.06 245.36 240.29 242.08 233.13 244.89 228.35 249.12"/>
  </g>
  <g id="gungbuk">
    <polyline class="cls-2" points="249.67 118.81 245.92 119.28 240.28 125.34 235.59 128.6 230.43 126.74 225.26 126.27 218.22 129.07 215.41 127.21 208.84 127.21 198.51 128.14 196.16 128.14 186.3 139.79 186.3 147.25 181.14 150.98 175.51 149.58 174.57 146.32 171.28 144.46 168.47 148.18 159.55 152.85 147.81 162.64 144.53 168.7 147.34 171.49 148.75 178.95 146.87 185.94 144.53 191.07 147.34 195.74 154.38 196.67 159.55 199 158.61 203.19 155.79 204.13 152.98 208.79 149.69 216.25 146.41 217.18 148.75 221.84 148.28 226.04 146.41 229.3 152.98 231.16 155.32 233.5 162.36 233.5 166.12 236.76 169.88 242.35 169.88 248.88 174.1 251.21 182.55 250.75 181.14 246.55 183.49 243.29 183.96 232.1 181.61 229.3 186.3 223.24 192.41 222.31 196.16 217.65 205.55 217.65 208.84 220.91 208.84 225.57 210.24 229.3 204.14 236.76 202.73 241.89 197.57 245.15 194.75 245.15 193.81 249.35 198.98 254.47 207.9 255.87 213.06 257.27 216.35 254.47 221.98 248.41 228.55 248.88 233.24 244.68 240.28 241.89 244.98 245.15 249.67 248.88 254.84 245.15 259.53 250.28 261.41 245.62 262.82 232.56 265.16 230.7 265.63 222.77 267.04 219.98 266.57 211.59 264.23 209.72 258.12 215.78 253.9 215.78 255.78 210.19 255.78 205.53 253.43 201.79 253.43 186.41 256.71 180.82 255.78 161.7 260 157.97 258.59 147.72 255.78 143.52 253.9 132.8 255.78 126.74 251.55 121.61 249.67 118.81"/>
    <polyline class="cls-3" points="249.67 118.81 245.92 119.28 240.28 125.34 235.59 128.6 230.43 126.74 225.26 126.27 218.22 129.07 215.41 127.21 208.84 127.21 198.51 128.14 196.16 128.14 186.3 139.79 186.3 147.25 181.14 150.98 175.51 149.58 174.57 146.32 171.28 144.46 168.47 148.18 159.55 152.85 147.81 162.64 144.53 168.7 147.34 171.49 148.75 178.95 146.87 185.94 144.53 191.07 147.34 195.74 154.38 196.67 159.55 199 158.61 203.19 155.79 204.13 152.98 208.79 149.69 216.25 146.41 217.18 148.75 221.84 148.28 226.04 146.41 229.3 152.98 231.16 155.32 233.5 162.36 233.5 166.12 236.76 169.88 242.35 169.88 248.88 174.1 251.21 182.55 250.75 181.14 246.55 183.49 243.29 183.96 232.1 181.61 229.3 186.3 223.24 192.41 222.31 196.16 217.65 205.55 217.65 208.84 220.91 208.84 225.57 210.24 229.3 204.14 236.76 202.73 241.89 197.57 245.15 194.75 245.15 193.81 249.35 198.98 254.47 207.9 255.87 213.06 257.27 216.35 254.47 221.98 248.41 228.55 248.88 233.24 244.68 240.28 241.89 244.98 245.15 249.67 248.88 254.84 245.15 259.53 250.28 261.41 245.62 262.82 232.56 265.16 230.7 265.63 222.77 267.04 219.98 266.57 211.59 264.23 209.72 258.12 215.78 253.9 215.78 255.78 210.19 255.78 205.53 253.43 201.79 253.43 186.41 256.71 180.82 255.78 161.7 260 157.97 258.59 147.72 255.78 143.52 253.9 132.8 255.78 126.74 251.55 121.61 249.67 118.81"/>
  </g>
  <g id="degu">
    <polyline class="cls-2" points="182.78 251.24 180.91 246.47 183.72 243.12 183.72 231.66 181.38 228.79 186.07 223.06 192.17 221.63 196.39 216.85 205.3 216.85 209.06 220.67 208.59 224.97 209.99 228.79 203.9 236.43 202.49 241.69 196.86 245.03 194.51 245.03 193.1 249.81 188.88 249.33 186.07 251.24 182.78 251.24"/>
    <polyline class="cls-3" points="182.78 251.24 180.91 246.47 183.72 243.12 183.72 231.66 181.38 228.79 186.07 223.06 192.17 221.63 196.39 216.85 205.3 216.85 209.06 220.67 208.59 224.97 209.99 228.79 203.9 236.43 202.49 241.69 196.86 245.03 194.51 245.03 193.1 249.81 188.88 249.33 186.07 251.24 182.78 251.24"/>
  </g>
  <g id="jenbuk">
    <polyline class="cls-2" points="59.46 218.53 51.03 219.46 51.5 223.19 56.65 225.98 58.05 234.83 56.18 242.28 50.09 246 46.82 248.8 47.28 257.18 44.01 260.9 44.01 267.42 49.63 272.54 51.5 277.66 56.65 276.73 64.61 272.54 70.7 265.09 74.44 264.16 79.59 268.82 85.21 271.14 88.49 274.87 89.43 279.52 97.39 279.06 103.47 276.73 108.63 279.06 114.24 278.59 117.52 274.87 123.14 275.33 126.42 278.13 131.57 271.61 132.04 263.23 127.82 258.57 128.29 251.12 130.63 247.87 132.5 237.62 139.06 234.36 143.74 229.71 146.55 228.78 148.43 225.52 148.89 221.33 146.55 216.67 142.81 217.6 136.25 216.67 132.04 214.81 130.16 213.88 129.7 217.13 123.61 220.39 117.52 220.39 112.84 215.27 108.63 209.22 100.67 209.69 96.45 212.94 92.7 215.27 88.49 212.48 88.96 206.89 85.21 204.56 78.66 205.03 76.78 207.82 76.78 212.01 70.7 216.67 65.08 219.46 59.46 218.53"/>
    <polyline class="cls-3" points="59.46 218.53 51.03 219.46 51.5 223.19 56.65 225.98 58.05 234.83 56.18 242.28 50.09 246 46.82 248.8 47.28 257.18 44.01 260.9 44.01 267.42 49.63 272.54 51.5 277.66 56.65 276.73 64.61 272.54 70.7 265.09 74.44 264.16 79.59 268.82 85.21 271.14 88.49 274.87 89.43 279.52 97.39 279.06 103.47 276.73 108.63 279.06 114.24 278.59 117.52 274.87 123.14 275.33 126.42 278.13 131.57 271.61 132.04 263.23 127.82 258.57 128.29 251.12 130.63 247.87 132.5 237.62 139.06 234.36 143.74 229.71 146.55 228.78 148.43 225.52 148.89 221.33 146.55 216.67 142.81 217.6 136.25 216.67 132.04 214.81 130.16 213.88 129.7 217.13 123.61 220.39 117.52 220.39 112.84 215.27 108.63 209.22 100.67 209.69 96.45 212.94 92.7 215.27 88.49 212.48 88.96 206.89 85.21 204.56 78.66 205.03 76.78 207.82 76.78 212.01 70.7 216.67 65.08 219.46 59.46 218.53"/>
  </g>
  <g id="chnam">
    <polyline class="cls-2" points="64.57 132.4 72.98 140.34 78.12 141.28 84.66 138.94 89.8 137.54 97.75 137.07 103.35 140.34 107.09 140.34 108.03 144.08 113.64 150.16 115.04 154.36 108.5 154.36 104.76 158.56 104.76 163.24 111.3 171.18 111.3 177.25 103.82 186.59 103.82 195.93 109.9 200.61 115.04 201.54 119.24 198.74 125.32 198.74 126.25 206.68 128.59 212.28 129.99 213.69 129.52 216.96 123.92 220.23 117.37 220.23 112.7 215.09 108.5 208.55 100.55 209.48 96.34 213.22 92.61 215.09 88.4 212.28 88.87 206.68 85.13 204.34 78.59 204.81 76.72 207.61 76.72 211.82 70.18 216.49 65.04 219.29 58.96 218.82 58.96 213.22 53.35 208.08 51.02 208.08 48.68 205.28 49.15 198.74 52.89 195.47 49.62 188.93 46.34 187.53 39.34 187.06 34.2 182.39 34.66 175.38 36.53 173.98 36.53 168.37 32.79 166.04 32.33 158.56 28.59 162.77 23.91 163.7 21.58 159.97 22.05 153.89 23.45 152.02 23.45 145.95 33.73 136.14 40.27 130.07 43.07 125.86 52.89 126.8 57.09 130.53 59.43 134.74 62.7 134.27 64.57 132.4"/>
    <polyline class="cls-3" points="64.57 132.4 72.98 140.34 78.12 141.28 84.66 138.94 89.8 137.54 97.75 137.07 103.35 140.34 107.09 140.34 108.03 144.08 113.64 150.16 115.04 154.36 108.5 154.36 104.76 158.56 104.76 163.24 111.3 171.18 111.3 177.25 103.82 186.59 103.82 195.93 109.9 200.61 115.04 201.54 119.24 198.74 125.32 198.74 126.25 206.68 128.59 212.28 129.99 213.69 129.52 216.96 123.92 220.23 117.37 220.23 112.7 215.09 108.5 208.55 100.55 209.48 96.34 213.22 92.61 215.09 88.4 212.28 88.87 206.68 85.13 204.34 78.59 204.81 76.72 207.61 76.72 211.82 70.18 216.49 65.04 219.29 58.96 218.82 58.96 213.22 53.35 208.08 51.02 208.08 48.68 205.28 49.15 198.74 52.89 195.47 49.62 188.93 46.34 187.53 39.34 187.06 34.2 182.39 34.66 175.38 36.53 173.98 36.53 168.37 32.79 166.04 32.33 158.56 28.59 162.77 23.91 163.7 21.58 159.97 22.05 153.89 23.45 152.02 23.45 145.95 33.73 136.14 40.27 130.07 43.07 125.86 52.89 126.8 57.09 130.53 59.43 134.74 62.7 134.27 64.57 132.4"/>
  </g>
  <g id="chbuk">
    <polyline class="cls-2" points="137.52 118.18 130.53 122.86 124.01 128.47 116.1 132.22 107.72 140.18 108.19 143.92 114.24 150 115.63 154.22 109.12 154.22 105.39 158.43 105.39 163.11 111.91 171.06 111.91 177.62 114.7 178.55 119.82 179.49 123.55 182.76 123.55 187.91 120.29 192.59 119.82 198.68 125.41 198.68 126.81 207.1 129.14 212.25 130.53 213.66 135.65 216 143.1 217.4 150.09 215.53 153.34 208.04 156.14 203.36 158.93 202.42 159.86 198.21 154.74 195.87 147.76 194.93 144.97 190.25 147.29 185.11 149.16 178.09 147.76 170.6 144.97 167.79 148.22 161.71 159.4 151.88 168.71 147.2 171.5 143.45 174.76 145.32 175.69 148.6 181.28 150 186.4 146.26 186.4 138.77 190.12 133.62 196.18 127.07 191.52 125.2 183.14 120.52 175.69 120.05 175.69 116.31 171.5 112.56 165.45 112.09 164.52 113.97 157.53 115.84 157.07 113.5 155.21 110.69 151.48 113.5 148.22 119.58 142.64 120.52 137.52 118.18"/>
    <polyline class="cls-3" points="137.52 118.18 130.53 122.86 124.01 128.47 116.1 132.22 107.72 140.18 108.19 143.92 114.24 150 115.63 154.22 109.12 154.22 105.39 158.43 105.39 163.11 111.91 171.06 111.91 177.62 114.7 178.55 119.82 179.49 123.55 182.76 123.55 187.91 120.29 192.59 119.82 198.68 125.41 198.68 126.81 207.1 129.14 212.25 130.53 213.66 135.65 216 143.1 217.4 150.09 215.53 153.34 208.04 156.14 203.36 158.93 202.42 159.86 198.21 154.74 195.87 147.76 194.93 144.97 190.25 147.29 185.11 149.16 178.09 147.76 170.6 144.97 167.79 148.22 161.71 159.4 151.88 168.71 147.2 171.5 143.45 174.76 145.32 175.69 148.6 181.28 150 186.4 146.26 186.4 138.77 190.12 133.62 196.18 127.07 191.52 125.2 183.14 120.52 175.69 120.05 175.69 116.31 171.5 112.56 165.45 112.09 164.52 113.97 157.53 115.84 157.07 113.5 155.21 110.69 151.48 113.5 148.22 119.58 142.64 120.52 137.52 118.18"/>
  </g>
  <g id="dejen">
    <polyline class="cls-2" points="111.75 176.67 104.53 186.17 104.53 195.67 109.95 200.42 115.36 201.37 119.43 198.52 119.88 192.34 123.04 187.59 122.59 182.37 119.43 178.57 114.46 178.1 111.75 176.67"/>
    <polyline class="cls-3" points="111.75 176.67 104.53 186.17 104.53 195.67 109.95 200.42 115.36 201.37 119.43 198.52 119.88 192.34 123.04 187.59 122.59 182.37 119.43 178.57 114.46 178.1 111.75 176.67"/>
  </g>
  <g id="in">
    <polyline class="cls-2" points="24.16 75.38 24.63 71.62 28.87 69.28 30.75 64.11 33.11 61.76 38.77 61.76 42.06 57.53 47.25 59.88 51.96 65.05 51.96 68.81 51.49 74.44 52.9 80.55 56.2 80.55 60.91 76.32 66.57 81.02 69.39 83.84 71.75 89 71.75 91.82 67.04 96.99 62.8 99.81 58.56 96.52 53.84 93.7 51.96 96.05 46.3 96.05 43.95 100.75 40.18 97.46 37.35 90.88 34.99 88.53 35.47 81.02 29.34 80.55 26.04 77.73 24.16 75.38"/>
    <polyline class="cls-3" points="24.16 75.38 24.63 71.62 28.87 69.28 30.75 64.11 33.11 61.76 38.77 61.76 42.06 57.53 47.25 59.88 51.96 65.05 51.96 68.81 51.49 74.44 52.9 80.55 56.2 80.55 60.91 76.32 66.57 81.02 69.39 83.84 71.75 89 71.75 91.82 67.04 96.99 62.8 99.81 58.56 96.52 53.84 93.7 51.96 96.05 46.3 96.05 43.95 100.75 40.18 97.46 37.35 90.88 34.99 88.53 35.47 81.02 29.34 80.55 26.04 77.73 24.16 75.38"/>
    <g class="cls-4">
      <polyline class="cls-2" points="11.82 116.87 13.21 112.35 16.47 108.73 19.26 107.37 26.71 107.82 29.04 109.63 32.3 106.92 36.95 106.92 41.14 108.73 43.93 106.92 50.45 107.37 53.24 109.18 52.31 113.25 49.05 115.51 43.93 115.51 36.95 120.94 32.3 124.56 28.11 123.65 23.92 120.03 18.8 120.94 16.47 122.3 13.21 119.58 11.82 116.87"/>
      <polyline class="cls-3" points="11.82 116.87 13.21 112.35 16.47 108.73 19.26 107.37 26.71 107.82 29.04 109.63 32.3 106.92 36.95 106.92 41.14 108.73 43.93 106.92 50.45 107.37 53.24 109.18 52.31 113.25 49.05 115.51 43.93 115.51 36.95 120.94 32.3 124.56 28.11 123.65 23.92 120.03 18.8 120.94 16.47 122.3 13.21 119.58 11.82 116.87"/>
    </g>
  </g>
  <g id="gung">
    <polyline class="cls-2" points="52.3 65.82 52.3 69.08 51.83 74.66 53.24 80.72 56.52 80.72 61.2 76.53 66.82 81.18 69.63 83.98 75.25 82.58 78.05 78.39 81.8 76.06 84.14 71.87 90.7 71.87 93.51 77.92 95.38 81.18 98.66 82.58 97.72 87.7 93.04 93.29 87.42 95.62 79.46 94.22 74.78 92.82 71.97 91.89 67.28 97.01 62.6 100.27 62.13 107.26 60.26 109.12 60.26 113.78 56.98 115.17 55.58 118.43 56.52 122.16 59.79 124.49 63.54 124.95 64.47 132.4 72.9 140.32 78.05 141.25 84.61 138.46 91.63 137.06 97.72 137.06 101.94 139.85 103.81 140.78 107.08 140.32 115.51 132.4 123.47 128.68 130.03 123.09 137.05 117.97 137.05 102.6 139.39 100.74 139.39 97.48 141.74 95.62 138.93 92.82 137.99 90.03 141.74 86.77 137.05 80.25 132.37 80.72 127.69 78.85 123.47 78.85 122.07 76.53 122.07 70.01 120.2 67.68 120.66 63.95 123.47 59.76 125.35 56.5 123.94 51.85 119.26 47.66 115.98 42.53 111.3 38.81 106.15 37.88 100.06 34.15 96.78 29.96 94.91 26.7 94.44 24.84 86.01 24.84 83.2 28.57 75.71 28.57 74.31 33.69 68.22 34.62 67.28 38.34 75.25 38.81 76.18 42.53 73.37 46.26 71.5 49.52 65.88 49.52 62.6 52.78 64.01 55.57 66.82 57.44 65.88 61.63 62.13 61.16 61.67 65.35 58.86 66.75 52.3 65.82"/>
    <polyline class="cls-3" points="52.3 65.82 52.3 69.08 51.83 74.66 53.24 80.72 56.52 80.72 61.2 76.53 66.82 81.18 69.63 83.98 75.25 82.58 78.05 78.39 81.8 76.06 84.14 71.87 90.7 71.87 93.51 77.92 95.38 81.18 98.66 82.58 97.72 87.7 93.04 93.29 87.42 95.62 79.46 94.22 74.78 92.82 71.97 91.89 67.28 97.01 62.6 100.27 62.13 107.26 60.26 109.12 60.26 113.78 56.98 115.17 55.58 118.43 56.52 122.16 59.79 124.49 63.54 124.95 64.47 132.4 72.9 140.32 78.05 141.25 84.61 138.46 91.63 137.06 97.72 137.06 101.94 139.85 103.81 140.78 107.08 140.32 115.51 132.4 123.47 128.68 130.03 123.09 137.05 117.97 137.05 102.6 139.39 100.74 139.39 97.48 141.74 95.62 138.93 92.82 137.99 90.03 141.74 86.77 137.05 80.25 132.37 80.72 127.69 78.85 123.47 78.85 122.07 76.53 122.07 70.01 120.2 67.68 120.66 63.95 123.47 59.76 125.35 56.5 123.94 51.85 119.26 47.66 115.98 42.53 111.3 38.81 106.15 37.88 100.06 34.15 96.78 29.96 94.91 26.7 94.44 24.84 86.01 24.84 83.2 28.57 75.71 28.57 74.31 33.69 68.22 34.62 67.28 38.34 75.25 38.81 76.18 42.53 73.37 46.26 71.5 49.52 65.88 49.52 62.6 52.78 64.01 55.57 66.82 57.44 65.88 61.63 62.13 61.16 61.67 65.35 58.86 66.75 52.3 65.82"/>
  </g>
  <g id="sou">
    <polyline class="cls-2" points="68.78 83.14 75.44 82.21 77.81 78.01 81.62 75.67 84 71.47 90.66 71.47 93.51 77.54 95.41 80.81 98.74 82.21 97.79 87.35 93.04 92.95 87.8 95.28 79.72 93.88 74.01 92.48 71.63 91.08 71.63 88.75 68.78 83.14"/>
    <polyline class="cls-3" points="68.78 83.14 75.44 82.21 77.81 78.01 81.62 75.67 84 71.47 90.66 71.47 93.51 77.54 95.41 80.81 98.74 82.21 97.79 87.35 93.04 92.95 87.8 95.28 79.72 93.88 74.01 92.48 71.63 91.08 71.63 88.75 68.78 83.14"/>
  </g>
  <g id="gang">
    <polyline class="cls-2" points="94.54 24.71 95.94 28.44 100.15 34.04 106.22 37.78 111.36 38.71 116.5 43.38 118.84 48.04 123.98 51.78 125.38 56.44 120.71 64.38 120.24 67.64 122.11 70.44 122.11 76.98 123.98 78.84 128.18 78.84 131.92 80.71 137.06 80.71 141.26 86.78 137.99 90.05 138.46 93.31 141.73 95.65 139.86 97.51 139.4 101.25 137.06 103.58 137.06 118.51 141.73 120.85 147.34 120.38 151.08 113.85 154.81 111.05 156.68 113.85 156.68 116.65 164.16 114.31 165.09 112.45 171.17 112.91 175.37 117.11 175.37 120.38 182.85 120.85 191.26 125.98 197.8 127.85 209.02 126.45 215.56 126.45 217.89 128.31 224.9 125.52 230.51 126.45 235.18 127.85 239.39 125.05 245.46 118.51 249.67 118.51 248.73 115.25 246.86 106.85 245.93 102.65 234.71 91.45 232.38 87.25 230.98 80.25 227.24 78.38 228.64 72.78 221.63 67.64 214.16 58.31 209.48 51.31 200.14 40.11 196.87 34.04 195.47 32.64 195.47 26.11 189.39 17.24 187.52 13.04 187.52 7.91 184.25 2.77 181.92 0.44 176.31 0.44 176.31 8.84 174.44 15.84 171.64 15.38 168.37 11.64 163.23 11.64 159.49 14.44 159.49 21.91 157.62 23.31 130.52 22.84 126.31 19.57 118.37 19.11 116.03 22.38 109.49 22.84 106.22 20.04 100.15 20.51 94.54 24.71"/>
    <polyline class="cls-3" points="94.54 24.71 95.94 28.44 100.15 34.04 106.22 37.78 111.36 38.71 116.5 43.38 118.84 48.04 123.98 51.78 125.38 56.44 120.71 64.38 120.24 67.64 122.11 70.44 122.11 76.98 123.98 78.84 128.18 78.84 131.92 80.71 137.06 80.71 141.26 86.78 137.99 90.05 138.46 93.31 141.73 95.65 139.86 97.51 139.4 101.25 137.06 103.58 137.06 118.51 141.73 120.85 147.34 120.38 151.08 113.85 154.81 111.05 156.68 113.85 156.68 116.65 164.16 114.31 165.09 112.45 171.17 112.91 175.37 117.11 175.37 120.38 182.85 120.85 191.26 125.98 197.8 127.85 209.02 126.45 215.56 126.45 217.89 128.31 224.9 125.52 230.51 126.45 235.18 127.85 239.39 125.05 245.46 118.51 249.67 118.51 248.73 115.25 246.86 106.85 245.93 102.65 234.71 91.45 232.38 87.25 230.98 80.25 227.24 78.38 228.64 72.78 221.63 67.64 214.16 58.31 209.48 51.31 200.14 40.11 196.87 34.04 195.47 32.64 195.47 26.11 189.39 17.24 187.52 13.04 187.52 7.91 184.25 2.77 181.92 0.44 176.31 0.44 176.31 8.84 174.44 15.84 171.64 15.38 168.37 11.64 163.23 11.64 159.49 14.44 159.49 21.91 157.62 23.31 130.52 22.84 126.31 19.57 118.37 19.11 116.03 22.38 109.49 22.84 106.22 20.04 100.15 20.51 94.54 24.71"/>
  </g>
  <g id="uldok">
    <polyline class="cls-2" points="305.69 132.41 305.83 129.06 307.15 127.27 308.75 126.6 310.35 123.47 312.47 122.58 314.6 122.13 315.13 121.23 318.05 121.23 318.98 120.12 320.31 120.56 321.64 122.58 322.44 125.26 321.64 128.61 318.85 132.63 316.06 134.64 313.67 135.76 311.54 134.64 309.81 136.2 308.22 136.87 306.49 134.19 305.69 132.41"/>
    <polyline class="cls-3" points="305.69 132.41 305.83 129.06 307.15 127.27 308.75 126.6 310.35 123.47 312.47 122.58 314.6 122.13 315.13 121.23 318.05 121.23 318.98 120.12 320.31 120.56 321.64 122.58 322.44 125.26 321.64 128.61 318.85 132.63 316.06 134.64 313.67 135.76 311.54 134.64 309.81 136.2 308.22 136.87 306.49 134.19 305.69 132.41"/>
    <g class="cls-5">
      <polyline class="cls-2" points="330.37 136.76 330.42 135.34 330.91 134.59 331.5 134.31 332.09 132.99 332.87 132.62 333.65 132.43 333.85 132.05 334.93 132.05 335.27 131.58 335.76 131.77 336.25 132.62 336.54 133.75 336.25 135.16 335.22 136.85 334.19 137.7 333.31 138.17 332.53 137.7 331.89 138.36 331.3 138.64 330.67 137.51 330.37 136.76"/>
      <polyline class="cls-3" points="330.37 136.76 330.42 135.34 330.91 134.59 331.5 134.31 332.09 132.99 332.87 132.62 333.65 132.43 333.85 132.05 334.93 132.05 335.27 131.58 335.76 131.77 336.25 132.62 336.54 133.75 336.25 135.16 335.22 136.85 334.19 137.7 333.31 138.17 332.53 137.7 331.89 138.36 331.3 138.64 330.67 137.51 330.37 136.76"/>
    </g>
  </g>
</svg>
